# xmcd CD database file
#
# Track frame offsets:
#	150
#	18031
#	36963
#	48602
#	69299
#	82363
#	97279
#	116280
#	130872
#	144676
#	159040
#	174215
#	195718
#	215364
#	241025
#
# Disc length: 3567 seconds
#
# Revision: 0
# Processed by: cddbd v1.5.2PL0 Copyright (c) Steve Scherf et al.
# Submitted via: CDex 1.70beta2
#
DISCID=c60ded0f
DTITLE=Hot Antic Jazz Band - The Eel
DYEAR=2011
DGENRE=Jazz
TTITLE0=Horse Feathers
TTITLE1=Slow And Steady
TTITLE2=The Eel
TTITLE3=Looking Good But Feeling Bad
TTITLE4=Love Me With A Feeling
TTITLE5=Three Little Words
TTITLE6=Somebody Stole My Gal
TTITLE7=Viper's Drag
TTITLE8=Okay Baby
TTITLE9=That's My Weakness Now
TTITLE10=Hot Feet
TTITLE11=St. Louis Blues
TTITLE12=Charleston Is The Best Dance After All
TTITLE13=You
TTITLE14=Third Rail
EXTD=YEAR: 2011
EXTT0=
EXTT1=
EXTT2=
EXTT3=
EXTT4=
EXTT5=
EXTT6=
EXTT7=
EXTT8=
EXTT9=
EXTT10=
EXTT11=
EXTT12=
EXTT13=
EXTT14=
PLAYORDER=
